<svg width="43" height="44" viewBox="0 0 43 44" fill="none" xmlns="http://www.w3.org/2000/svg">
<path d="M10.6585 3.58817C13.9509 1.67225 17.5409 0.714284 21.4286 0.714284C25.3162 0.714284 28.897 1.67225 32.1708 3.58817C35.4632 5.50409 38.0673 8.10826 39.9833 11.4007C41.8992 14.6745 42.8571 18.2552 42.8571 22.1429C42.8571 26.0305 41.8992 29.6205 39.9833 32.9129C38.0673 36.1868 35.4632 38.7816 32.1708 40.6975C28.897 42.6135 25.3162 43.5714 21.4286 43.5714C17.5409 43.5714 13.9509 42.6135 10.6585 40.6975C7.38467 38.7816 4.78981 36.1868 2.87388 32.9129C0.957961 29.6205 0 26.0305 0 22.1429C0 18.2552 0.957961 14.6745 2.87388 11.4007C4.78981 8.10826 7.38467 5.50409 10.6585 3.58817ZM25 35.5078V30.2065C25 29.9461 24.9163 29.7321 24.7489 29.5647C24.5815 29.3787 24.3769 29.2857 24.135 29.2857H18.7779C18.5361 29.2857 18.3222 29.3787 18.1362 29.5647C17.9501 29.7507 17.8571 29.9647 17.8571 30.2065V35.5078C17.8571 35.7496 17.9501 35.9635 18.1362 36.1496C18.3222 36.3356 18.5361 36.4286 18.7779 36.4286H24.135C24.3769 36.4286 24.5815 36.3449 24.7489 36.1775C24.9163 35.9914 25 35.7682 25 35.5078ZM24.9442 25.9096L25.4464 8.58259C25.4464 8.35937 25.3534 8.19196 25.1674 8.08036C24.9814 7.93155 24.7582 7.85714 24.4978 7.85714H18.3594C18.099 7.85714 17.8757 7.93155 17.6897 8.08036C17.5037 8.19196 17.4107 8.35937 17.4107 8.58259L17.885 25.9096C17.885 26.0956 17.9781 26.263 18.1641 26.4118C18.3501 26.542 18.5733 26.6071 18.8337 26.6071H23.9955C24.256 26.6071 24.4699 26.542 24.6373 26.4118C24.8233 26.263 24.9256 26.0956 24.9442 25.9096Z" fill="#03182F"/>
</svg>
