<svg width="10" height="17" viewBox="0 0 10 17" fill="none" xmlns="http://www.w3.org/2000/svg">
<path d="M0.206473 7.9721C0.0948659 8.0837 0.0390625 8.21205 0.0390625 8.35714C0.0390625 8.50223 0.0948659 8.63058 0.206473 8.74219L8.00781 16.5435C8.11942 16.6551 8.24777 16.7109 8.39286 16.7109C8.53795 16.7109 8.66629 16.6551 8.7779 16.5435L9.61496 15.7065C9.72656 15.5949 9.78237 15.4665 9.78237 15.3214C9.78237 15.1763 9.72656 15.048 9.61496 14.9364L3.03571 8.35714L9.61496 1.7779C9.72656 1.66629 9.78237 1.53795 9.78237 1.39286C9.78237 1.24777 9.72656 1.11942 9.61496 1.00781L8.7779 0.170758C8.66629 0.0591503 8.53795 0.00334668 8.39286 0.00334668C8.24777 0.00334668 8.11942 0.0591503 8.00781 0.170758L0.206473 7.9721Z" fill="white"/>
</svg>
